<?xml version="1.0" encoding="UTF-8"?>
<svg version="1.1" xmlns="http://www.w3.org/2000/svg" width="48" height="48">
<path d="M0 0 C0.79075928 0.00523682 1.58151855 0.01047363 2.39624023 0.01586914 C3.67724609 0.02070312 3.67724609 0.02070312 4.98413086 0.02563477 C5.88196289 0.03401367 6.77979492 0.04239258 7.70483398 0.05102539 C8.6065332 0.05553711 9.50823242 0.06004883 10.43725586 0.06469727 C12.67234712 0.07652315 14.90730835 0.09300319 17.14233398 0.11352539 C17.85717773 2.31274414 17.85717773 2.31274414 18.14233398 5.11352539 C16.70874023 7.57055664 16.70874023 7.57055664 14.70483398 9.92602539 C13.71676758 11.11131836 13.71676758 11.11131836 12.70874023 12.32055664 C11.93336914 13.20807617 11.93336914 13.20807617 11.14233398 14.11352539 C13.45233398 14.44352539 15.76233398 14.77352539 18.14233398 15.11352539 C19.01464844 17.20019531 19.01464844 17.20019531 19.14233398 20.11352539 C17.23225568 22.58510865 15.4192749 24.58306847 13.18530273 26.72680664 C12.25806145 27.64842842 12.25806145 27.64842842 11.31208801 28.58866882 C10.00326404 29.88405046 8.68726535 31.17221694 7.36474609 32.45361328 C5.33410461 34.42188593 3.32564697 36.41076716 1.32006836 38.40454102 C0.04721802 39.65905377 -1.22683085 40.91235188 -2.50219727 42.16430664 C-3.10747757 42.76108719 -3.71275787 43.35786774 -4.33638 43.97273254 C-8.62331443 48.11352539 -8.62331443 48.11352539 -10.85766602 48.11352539 C-10.31573588 42.78340239 -9.01108049 38.53458497 -6.79516602 33.67602539 C-6.37267578 32.72179688 -6.37267578 32.72179688 -5.94165039 31.74829102 C-5.2547679 30.19989488 -4.55732194 28.65619182 -3.85766602 27.11352539 C-6.16766602 27.11352539 -8.47766602 27.11352539 -10.85766602 27.11352539 C-12.00054762 23.05216535 -11.72313011 20.90118514 -10.02172852 17.06665039 C-9.61696289 16.13981445 -9.21219727 15.21297852 -8.79516602 14.25805664 C-8.36204102 13.30286133 -7.92891602 12.34766602 -7.48266602 11.36352539 C-7.05727539 10.39286133 -6.63188477 9.42219727 -6.19360352 8.42211914 C-2.53998228 0.15522299 -2.53998228 0.15522299 0 0 Z M0.14233398 3.11352539 C-0.98684635 5.48661561 -2.11108666 7.86184533 -3.23266602 10.23852539 C-3.70833008 11.23625977 -3.70833008 11.23625977 -4.19360352 12.25415039 C-6.02441855 16.14463234 -7.58733495 19.99457315 -8.85766602 24.11352539 C-6.21766602 24.11352539 -3.57766602 24.11352539 -0.85766602 24.11352539 C-1.3367395 28.26549562 -2.00337275 31.40493886 -3.85766602 35.11352539 C-3.52766602 36.10352539 -3.19766602 37.09352539 -2.85766602 38.11352539 C0.31300348 34.97170437 3.47818952 31.82441664 6.64233398 28.67602539 C7.54854492 27.77819336 8.45475586 26.88036133 9.38842773 25.95532227 C10.2456543 25.10131836 11.10288086 24.24731445 11.98608398 23.36743164 C12.78208008 22.57667236 13.57807617 21.78591309 14.39819336 20.97119141 C16.25641391 19.41670783 16.25641391 19.41670783 16.14233398 18.11352539 C13.50233398 17.78352539 10.86233398 17.45352539 8.14233398 17.11352539 C8.45099186 10.94036787 11.37832852 7.7584683 15.14233398 3.11352539 C10.19233398 3.11352539 5.24233398 3.11352539 0.14233398 3.11352539 Z " fill="#000000" transform="translate(20.857666015625,-0.113525390625)"/>
</svg>
