<svg id="Capa_1" data-name="Capa 1" xmlns="http://www.w3.org/2000/svg" viewBox="0 0 521 416"><defs><style>.cls-1{fill:#fcfcfc;}</style></defs><title>logo-footer</title><path class="cls-1" d="M177.64,206.89c-41.82-43-83.47-84.51-113.23-135.82-5.67-9.76-8.63-21.17-12.25-32C51.08,35.85,52,32,52,26.73,108.74,64.86,167.72,94.85,233.05,114Z"/><path class="cls-1" d="M241.79,123.53c9.16,18.42,17,36.41,26.8,53.24,9.13,15.64,11.46,30.61,6.37,48.32-6.65,23.12-10.65,47-16.07,70.5-.49,2.11-3.06,5.32-4.71,5.35-18.35.39-36.7.24-55.54.24-3.67-20-6.22-39.87-11.16-59.1-4-15.74-1.23-28.41,7.59-41.85,15.24-23.22,28.77-47.58,43-71.44C239,127.28,240.11,125.91,241.79,123.53Z"/><path class="cls-1" d="M355.27,237.14v-8.42c-.06-18.19-8-29.14-25.54-34.73a72.38,72.38,0,0,0-14.57-3c-4.93-.49-10-.1-15.67-1.51,3.84-2.25,7.68-4.52,11.53-6.75,12.24-7.1,24.42-14.32,36.8-21.17a15.1,15.1,0,0,1,8.77-1.94c21.77,3.13,43.4,7.51,65.25,9.78,21.62,2.25,43.44,2.49,67.25,3.72-4.34,3.66-7.43,7.57-11.46,9.43-22.31,10.29-44.66,20.52-67.36,29.9-18.26,7.55-38.55,10.62-53.2,25.9Z"/><path class="cls-1" d="M341.74,298.27l-46.89-94.56c15.62-2.33,30-2.41,42.22,7.94,2.95,2.51,6.15,6.78,6.23,10.3.53,25.29.28,50.6.28,75.9Z"/><path class="cls-1" d="M223.08,313.07c-17.26,6.7-34.49,13.46-51.8,20a11.75,11.75,0,0,1-6.06.13q-50.06-9.81-100.07-19.82c-.67-.13-1.24-.75-2.79-1.74H222.89Z"/><path class="cls-1" d="M289.6,220.05c8,16.11,16,32.21,24.36,49l-43.69,31.81c6.13-28.28,11.78-54.33,17.42-80.37Z"/><path class="cls-1" d="M250.56,315.17l-88.82,64.46-1.28-.77c4.62-11.52,9.18-23.06,14-34.51.49-1.19,2.24-2.1,3.61-2.64q35.75-14,71.52-27.87Z"/></svg>