<svg xmlns="http://www.w3.org/2000/svg" viewBox="0 0 345.69 121.1"><title>Recurso 1</title><g id="Capa_2" data-name="Capa 2"><g id="Capa_1-2" data-name="Capa 1"><path d="M150.78,79.47c-.49,1.9-.79,3.32-1.22,4.69a52.68,52.68,0,0,1-58.89,36.19c-26.12-4.27-44.78-27.14-44.07-54,.68-25.72,20.74-47.49,46.45-50.42A52.79,52.79,0,0,1,147,45.72c1.2,2.52,1.21,4-1.35,5.72-10.38,7.08-20.57,14.45-30.87,21.66-11.65,8.17-20.23,6.7-29-5.16l33.51-24.17a28.2,28.2,0,0,0-14.65-6.86,31.82,31.82,0,1,0,22.64,46.32c1.58-3,3.27-4,6.48-3.83C139.27,79.65,144.79,79.47,150.78,79.47Z"/><path d="M323.44,120.16v-4.28c0-16.15.31-32.31-.17-48.45a43.78,43.78,0,0,0-3.79-16c-3.24-7.32-9.62-11.58-17.62-12.49-9.13-1-18.22-.82-26.69,3.61a6,6,0,0,0-3.62,6.09c.18,17.51.11,35,.07,52.53,0,12.88-8.48,20.27-21.83,18.91V18.64c.3-.07.59-.24.75-.16,8.08,4.19,16.18,3.57,24.73,1.13C288,16,301,15.1,314,19a43.42,43.42,0,0,1,31.53,41.52c.22,13.44-.38,26.9.18,40.32C346.29,115.88,334.66,120.76,323.44,120.16Z"/><path d="M164.5,120V18.54c.35-.06.65-.21.82-.12,8.49,4.51,17,3.35,25.79.69a61.08,61.08,0,0,1,30.35-1.62,40.57,40.57,0,0,1,3.94,1c9.61,3,10.25,4,10.14,13.89,0,3.81,0,7.62,0,12.15-1.53-.67-2.56-1.12-3.6-1.56a54.54,54.54,0,0,0-34-3.19,39.24,39.24,0,0,0-5.6,1.89c-4.14,1.61-6.19,4.13-6.08,9.15.36,16.88-.11,33.78.2,50.67C186.69,115.47,175.92,120.67,164.5,120Z"/><path d="M.16,0C7.1.08,12.28,2.8,14.63,8.91c2.57,6.67,7,8.33,13.65,7.75s13.73-.13,21-.13c-1.08,5.31-3.59,9.35-7.53,11.92a136.23,136.23,0,0,1-16.5,8.88c-2.14,1-3.3,1.75-3.24,4.39.21,10.35-.17,20.72.27,31.05.79,18.63,8.41,34,23.23,45.53.65.5,1.27,1,1.91,1.55L47,121.1c-6.75-2-13.7-3.38-20.19-6C13.08,109.66,3.23,100.42.48,85.19A28.64,28.64,0,0,1,0,80.05Q0,41.41,0,2.77C0,1.92.1,1.07.16,0Z"/></g></g></svg>