<?xml version="1.0" encoding="UTF-8"?>
<svg version="1.1" xmlns="http://www.w3.org/2000/svg" width="48" height="48">
<path d="M0 0 C5.28 0 10.56 0 16 0 C16 5.28 16 10.56 16 16 C15.01 16 14.02 16 13 16 C12.67 13.03 12.34 10.06 12 7 C11.02417969 8.010625 10.04835938 9.02125 9.04296875 10.0625 C7.75821153 11.37539059 6.47303338 12.68786938 5.1875 14 C4.54490234 14.66773438 3.90230469 15.33546875 3.24023438 16.0234375 C2.30727539 16.97089844 2.30727539 16.97089844 1.35546875 17.9375 C0.78465576 18.52402344 0.21384277 19.11054687 -0.37426758 19.71484375 C-2 21 -2 21 -5 21 C-4.4194679 17.69881206 -3.45131901 16.08865924 -1.05859375 13.765625 C-0.18364258 12.90517578 -0.18364258 12.90517578 0.70898438 12.02734375 C1.32064453 11.44082031 1.93230469 10.85429688 2.5625 10.25 C3.17802734 9.64800781 3.79355469 9.04601562 4.42773438 8.42578125 C5.94514813 6.94365619 7.47170596 5.4709033 9 4 C6.03 3.67 3.06 3.34 0 3 C0 2.01 0 1.02 0 0 Z " fill="#000000" transform="translate(5,27)"/>
<path d="M0 0 C-0.5805321 3.30118794 -1.54868099 4.91134076 -3.94140625 7.234375 C-4.52470703 7.80800781 -5.10800781 8.38164062 -5.70898438 8.97265625 C-6.32064453 9.55917969 -6.93230469 10.14570313 -7.5625 10.75 C-8.17802734 11.35199219 -8.79355469 11.95398438 -9.42773438 12.57421875 C-10.94514813 14.05634381 -12.47170596 15.5290967 -14 17 C-11.03 17.33 -8.06 17.66 -5 18 C-5 18.99 -5 19.98 -5 21 C-10.28 21 -15.56 21 -21 21 C-21 15.72 -21 10.44 -21 5 C-20.01 5 -19.02 5 -18 5 C-17.67 7.97 -17.34 10.94 -17 14 C-16.02417969 12.989375 -15.04835938 11.97875 -14.04296875 10.9375 C-12.75821153 9.62460941 -11.47303338 8.31213062 -10.1875 7 C-9.54490234 6.33226562 -8.90230469 5.66453125 -8.24023438 4.9765625 C-7.61826172 4.34492187 -6.99628906 3.71328125 -6.35546875 3.0625 C-5.78465576 2.47597656 -5.21384277 1.88945312 -4.62573242 1.28515625 C-3 0 -3 0 0 0 Z " fill="#000000" transform="translate(48,0)"/>
</svg>
